<svg xmlns="http://www.w3.org/2000/svg" viewBox="0 0 976 556" width="976" height="556" font-family='ui-monospace,SFMono-Regular,Menlo,Consolas,"DejaVu Sans Mono",monospace' font-size="16">
<rect width="976" height="556" fill="#14161a"/>
<rect x="8" y="8" width="19.2" height="18" fill="#282a36"/>
<text x="8" y="22" textLength="19.2" lengthAdjust="spacingAndGlyphs" xml:space="preserve" style="fill:#44475a">┌─</text>
<rect x="27.2" y="8" width="76.8" height="18" fill="#282a36"/>
<text x="27.2" y="22" textLength="76.8" lengthAdjust="spacingAndGlyphs" xml:space="preserve" style="fill:#f8f8f2;font-weight:bold"> record </text>
<rect x="104" y="8" width="864" height="18" fill="#282a36"/>
<text x="104" y="22" textLength="864" lengthAdjust="spacingAndGlyphs" xml:space="preserve" style="fill:#44475a">─────────────────────────────────────────────────────────────────────────────────────────┐</text>
<rect x="8" y="26" width="9.6" height="18" fill="#282a36"/>
<text x="8" y="40" textLength="9.6" lengthAdjust="spacingAndGlyphs" xml:space="preserve" style="fill:#44475a">│</text>
<rect x="17.6" y="26" width="940.8" height="18" fill="#282a36"/>
<rect x="958.4" y="26" width="9.6" height="18" fill="#282a36"/>
<text x="958.4" y="40" textLength="9.6" lengthAdjust="spacingAndGlyphs" xml:space="preserve" style="fill:#44475a">│</text>
<rect x="8" y="44" width="9.6" height="18" fill="#282a36"/>
<text x="8" y="58" textLength="9.6" lengthAdjust="spacingAndGlyphs" xml:space="preserve" style="fill:#44475a">│</text>
<rect x="17.6" y="44" width="940.8" height="18" fill="#282a36"/>
<rect x="958.4" y="44" width="9.6" height="18" fill="#282a36"/>
<text x="958.4" y="58" textLength="9.6" lengthAdjust="spacingAndGlyphs" xml:space="preserve" style="fill:#44475a">│</text>
<rect x="8" y="62" width="9.6" height="18" fill="#282a36"/>
<text x="8" y="76" textLength="9.6" lengthAdjust="spacingAndGlyphs" xml:space="preserve" style="fill:#44475a">│</text>
<rect x="17.6" y="62" width="19.2" height="18" fill="#282a36"/>
<rect x="36.8" y="62" width="38.4" height="18" fill="#282a36"/>
<text x="36.8" y="76" textLength="38.4" lengthAdjust="spacingAndGlyphs" xml:space="preserve" style="fill:#9ea8c7">name</text>
<rect x="75.2" y="62" width="48" height="18" fill="#282a36"/>
<rect x="123.2" y="62" width="816" height="18" fill="#282a36"/>
<text x="123.2" y="76" textLength="816" lengthAdjust="spacingAndGlyphs" xml:space="preserve" style="fill:#bd93f9">ada lovelace                                                                         </text>
<rect x="939.2" y="62" width="19.2" height="18" fill="#282a36"/>
<rect x="958.4" y="62" width="9.6" height="18" fill="#282a36"/>
<text x="958.4" y="76" textLength="9.6" lengthAdjust="spacingAndGlyphs" xml:space="preserve" style="fill:#44475a">│</text>
<rect x="8" y="80" width="9.6" height="18" fill="#282a36"/>
<text x="8" y="94" textLength="9.6" lengthAdjust="spacingAndGlyphs" xml:space="preserve" style="fill:#44475a">│</text>
<rect x="17.6" y="80" width="19.2" height="18" fill="#282a36"/>
<rect x="36.8" y="80" width="48" height="18" fill="#282a36"/>
<text x="36.8" y="94" textLength="48" lengthAdjust="spacingAndGlyphs" xml:space="preserve" style="fill:#9ea8c7">email</text>
<rect x="84.8" y="80" width="38.4" height="18" fill="#282a36"/>
<rect x="123.2" y="80" width="816" height="18" fill="#21222c"/>
<text x="123.2" y="94" textLength="816" lengthAdjust="spacingAndGlyphs" xml:space="preserve" style="fill:#f8f8f2">ada@analytical.engine                                                                </text>
<rect x="939.2" y="80" width="19.2" height="18" fill="#282a36"/>
<rect x="958.4" y="80" width="9.6" height="18" fill="#282a36"/>
<text x="958.4" y="94" textLength="9.6" lengthAdjust="spacingAndGlyphs" xml:space="preserve" style="fill:#44475a">│</text>
<rect x="8" y="98" width="9.6" height="18" fill="#282a36"/>
<text x="8" y="112" textLength="9.6" lengthAdjust="spacingAndGlyphs" xml:space="preserve" style="fill:#44475a">│</text>
<rect x="17.6" y="98" width="19.2" height="18" fill="#282a36"/>
<rect x="36.8" y="98" width="38.4" height="18" fill="#282a36"/>
<text x="36.8" y="112" textLength="38.4" lengthAdjust="spacingAndGlyphs" xml:space="preserve" style="fill:#9ea8c7">role</text>
<rect x="75.2" y="98" width="48" height="18" fill="#282a36"/>
<rect x="123.2" y="98" width="816" height="18" fill="#21222c"/>
<text x="123.2" y="112" textLength="816" lengthAdjust="spacingAndGlyphs" xml:space="preserve" style="fill:#f8f8f2">engineer                                                                             </text>
<rect x="939.2" y="98" width="19.2" height="18" fill="#282a36"/>
<rect x="958.4" y="98" width="9.6" height="18" fill="#282a36"/>
<text x="958.4" y="112" textLength="9.6" lengthAdjust="spacingAndGlyphs" xml:space="preserve" style="fill:#44475a">│</text>
<rect x="8" y="116" width="9.6" height="18" fill="#282a36"/>
<text x="8" y="130" textLength="9.6" lengthAdjust="spacingAndGlyphs" xml:space="preserve" style="fill:#44475a">│</text>
<rect x="17.6" y="116" width="19.2" height="18" fill="#282a36"/>
<rect x="36.8" y="116" width="38.4" height="18" fill="#282a36"/>
<text x="36.8" y="130" textLength="38.4" lengthAdjust="spacingAndGlyphs" xml:space="preserve" style="fill:#9ea8c7">team</text>
<rect x="75.2" y="116" width="48" height="18" fill="#282a36"/>
<rect x="123.2" y="116" width="816" height="18" fill="#21222c"/>
<text x="123.2" y="130" textLength="816" lengthAdjust="spacingAndGlyphs" xml:space="preserve" style="fill:#f8f8f2">notes                                                                                </text>
<rect x="939.2" y="116" width="19.2" height="18" fill="#282a36"/>
<rect x="958.4" y="116" width="9.6" height="18" fill="#282a36"/>
<text x="958.4" y="130" textLength="9.6" lengthAdjust="spacingAndGlyphs" xml:space="preserve" style="fill:#44475a">│</text>
<rect x="8" y="134" width="9.6" height="18" fill="#282a36"/>
<text x="8" y="148" textLength="9.6" lengthAdjust="spacingAndGlyphs" xml:space="preserve" style="fill:#44475a">│</text>
<rect x="17.6" y="134" width="19.2" height="18" fill="#282a36"/>
<rect x="36.8" y="134" width="76.8" height="18" fill="#282a36"/>
<text x="36.8" y="148" textLength="76.8" lengthAdjust="spacingAndGlyphs" xml:space="preserve" style="fill:#9ea8c7">location</text>
<rect x="113.6" y="134" width="9.6" height="18" fill="#282a36"/>
<rect x="123.2" y="134" width="816" height="18" fill="#21222c"/>
<text x="123.2" y="148" textLength="816" lengthAdjust="spacingAndGlyphs" xml:space="preserve" style="fill:#f8f8f2">london                                                                               </text>
<rect x="939.2" y="134" width="19.2" height="18" fill="#282a36"/>
<rect x="958.4" y="134" width="9.6" height="18" fill="#282a36"/>
<text x="958.4" y="148" textLength="9.6" lengthAdjust="spacingAndGlyphs" xml:space="preserve" style="fill:#44475a">│</text>
<rect x="8" y="152" width="9.6" height="18" fill="#282a36"/>
<text x="8" y="166" textLength="9.6" lengthAdjust="spacingAndGlyphs" xml:space="preserve" style="fill:#44475a">│</text>
<rect x="17.6" y="152" width="19.2" height="18" fill="#282a36"/>
<rect x="36.8" y="152" width="76.8" height="18" fill="#282a36"/>
<text x="36.8" y="166" textLength="76.8" lengthAdjust="spacingAndGlyphs" xml:space="preserve" style="fill:#9ea8c7">pronouns</text>
<rect x="113.6" y="152" width="9.6" height="18" fill="#282a36"/>
<rect x="123.2" y="152" width="816" height="18" fill="#21222c"/>
<text x="123.2" y="166" textLength="816" lengthAdjust="spacingAndGlyphs" xml:space="preserve" style="fill:#f8f8f2">she/her                                                                              </text>
<rect x="939.2" y="152" width="19.2" height="18" fill="#282a36"/>
<rect x="958.4" y="152" width="9.6" height="18" fill="#282a36"/>
<text x="958.4" y="166" textLength="9.6" lengthAdjust="spacingAndGlyphs" xml:space="preserve" style="fill:#44475a">│</text>
<rect x="8" y="170" width="9.6" height="18" fill="#282a36"/>
<text x="8" y="184" textLength="9.6" lengthAdjust="spacingAndGlyphs" xml:space="preserve" style="fill:#44475a">│</text>
<rect x="17.6" y="170" width="940.8" height="18" fill="#282a36"/>
<rect x="958.4" y="170" width="9.6" height="18" fill="#282a36"/>
<text x="958.4" y="184" textLength="9.6" lengthAdjust="spacingAndGlyphs" xml:space="preserve" style="fill:#44475a">│</text>
<rect x="8" y="188" width="9.6" height="18" fill="#282a36"/>
<text x="8" y="202" textLength="9.6" lengthAdjust="spacingAndGlyphs" xml:space="preserve" style="fill:#44475a">│</text>
<rect x="17.6" y="188" width="940.8" height="18" fill="#282a36"/>
<rect x="958.4" y="188" width="9.6" height="18" fill="#282a36"/>
<text x="958.4" y="202" textLength="9.6" lengthAdjust="spacingAndGlyphs" xml:space="preserve" style="fill:#44475a">│</text>
<rect x="8" y="206" width="9.6" height="18" fill="#282a36"/>
<text x="8" y="220" textLength="9.6" lengthAdjust="spacingAndGlyphs" xml:space="preserve" style="fill:#44475a">│</text>
<rect x="17.6" y="206" width="940.8" height="18" fill="#282a36"/>
<rect x="958.4" y="206" width="9.6" height="18" fill="#282a36"/>
<text x="958.4" y="220" textLength="9.6" lengthAdjust="spacingAndGlyphs" xml:space="preserve" style="fill:#44475a">│</text>
<rect x="8" y="224" width="9.6" height="18" fill="#282a36"/>
<text x="8" y="238" textLength="9.6" lengthAdjust="spacingAndGlyphs" xml:space="preserve" style="fill:#44475a">│</text>
<rect x="17.6" y="224" width="940.8" height="18" fill="#282a36"/>
<rect x="958.4" y="224" width="9.6" height="18" fill="#282a36"/>
<text x="958.4" y="238" textLength="9.6" lengthAdjust="spacingAndGlyphs" xml:space="preserve" style="fill:#44475a">│</text>
<rect x="8" y="242" width="9.6" height="18" fill="#282a36"/>
<text x="8" y="256" textLength="9.6" lengthAdjust="spacingAndGlyphs" xml:space="preserve" style="fill:#44475a">│</text>
<rect x="17.6" y="242" width="940.8" height="18" fill="#282a36"/>
<rect x="958.4" y="242" width="9.6" height="18" fill="#282a36"/>
<text x="958.4" y="256" textLength="9.6" lengthAdjust="spacingAndGlyphs" xml:space="preserve" style="fill:#44475a">│</text>
<rect x="8" y="260" width="9.6" height="18" fill="#282a36"/>
<text x="8" y="274" textLength="9.6" lengthAdjust="spacingAndGlyphs" xml:space="preserve" style="fill:#44475a">│</text>
<rect x="17.6" y="260" width="940.8" height="18" fill="#282a36"/>
<rect x="958.4" y="260" width="9.6" height="18" fill="#282a36"/>
<text x="958.4" y="274" textLength="9.6" lengthAdjust="spacingAndGlyphs" xml:space="preserve" style="fill:#44475a">│</text>
<rect x="8" y="278" width="9.6" height="18" fill="#282a36"/>
<text x="8" y="292" textLength="9.6" lengthAdjust="spacingAndGlyphs" xml:space="preserve" style="fill:#44475a">│</text>
<rect x="17.6" y="278" width="940.8" height="18" fill="#282a36"/>
<rect x="958.4" y="278" width="9.6" height="18" fill="#282a36"/>
<text x="958.4" y="292" textLength="9.6" lengthAdjust="spacingAndGlyphs" xml:space="preserve" style="fill:#44475a">│</text>
<rect x="8" y="296" width="9.6" height="18" fill="#282a36"/>
<text x="8" y="310" textLength="9.6" lengthAdjust="spacingAndGlyphs" xml:space="preserve" style="fill:#44475a">│</text>
<rect x="17.6" y="296" width="940.8" height="18" fill="#282a36"/>
<rect x="958.4" y="296" width="9.6" height="18" fill="#282a36"/>
<text x="958.4" y="310" textLength="9.6" lengthAdjust="spacingAndGlyphs" xml:space="preserve" style="fill:#44475a">│</text>
<rect x="8" y="314" width="9.6" height="18" fill="#282a36"/>
<text x="8" y="328" textLength="9.6" lengthAdjust="spacingAndGlyphs" xml:space="preserve" style="fill:#44475a">│</text>
<rect x="17.6" y="314" width="940.8" height="18" fill="#282a36"/>
<rect x="958.4" y="314" width="9.6" height="18" fill="#282a36"/>
<text x="958.4" y="328" textLength="9.6" lengthAdjust="spacingAndGlyphs" xml:space="preserve" style="fill:#44475a">│</text>
<rect x="8" y="332" width="9.6" height="18" fill="#282a36"/>
<text x="8" y="346" textLength="9.6" lengthAdjust="spacingAndGlyphs" xml:space="preserve" style="fill:#44475a">│</text>
<rect x="17.6" y="332" width="940.8" height="18" fill="#282a36"/>
<rect x="958.4" y="332" width="9.6" height="18" fill="#282a36"/>
<text x="958.4" y="346" textLength="9.6" lengthAdjust="spacingAndGlyphs" xml:space="preserve" style="fill:#44475a">│</text>
<rect x="8" y="350" width="9.6" height="18" fill="#282a36"/>
<text x="8" y="364" textLength="9.6" lengthAdjust="spacingAndGlyphs" xml:space="preserve" style="fill:#44475a">│</text>
<rect x="17.6" y="350" width="940.8" height="18" fill="#282a36"/>
<rect x="958.4" y="350" width="9.6" height="18" fill="#282a36"/>
<text x="958.4" y="364" textLength="9.6" lengthAdjust="spacingAndGlyphs" xml:space="preserve" style="fill:#44475a">│</text>
<rect x="8" y="368" width="9.6" height="18" fill="#282a36"/>
<text x="8" y="382" textLength="9.6" lengthAdjust="spacingAndGlyphs" xml:space="preserve" style="fill:#44475a">│</text>
<rect x="17.6" y="368" width="940.8" height="18" fill="#282a36"/>
<rect x="958.4" y="368" width="9.6" height="18" fill="#282a36"/>
<text x="958.4" y="382" textLength="9.6" lengthAdjust="spacingAndGlyphs" xml:space="preserve" style="fill:#44475a">│</text>
<rect x="8" y="386" width="9.6" height="18" fill="#282a36"/>
<text x="8" y="400" textLength="9.6" lengthAdjust="spacingAndGlyphs" xml:space="preserve" style="fill:#44475a">│</text>
<rect x="17.6" y="386" width="940.8" height="18" fill="#282a36"/>
<rect x="958.4" y="386" width="9.6" height="18" fill="#282a36"/>
<text x="958.4" y="400" textLength="9.6" lengthAdjust="spacingAndGlyphs" xml:space="preserve" style="fill:#44475a">│</text>
<rect x="8" y="404" width="9.6" height="18" fill="#282a36"/>
<text x="8" y="418" textLength="9.6" lengthAdjust="spacingAndGlyphs" xml:space="preserve" style="fill:#44475a">│</text>
<rect x="17.6" y="404" width="940.8" height="18" fill="#282a36"/>
<rect x="958.4" y="404" width="9.6" height="18" fill="#282a36"/>
<text x="958.4" y="418" textLength="9.6" lengthAdjust="spacingAndGlyphs" xml:space="preserve" style="fill:#44475a">│</text>
<rect x="8" y="422" width="9.6" height="18" fill="#282a36"/>
<text x="8" y="436" textLength="9.6" lengthAdjust="spacingAndGlyphs" xml:space="preserve" style="fill:#44475a">│</text>
<rect x="17.6" y="422" width="940.8" height="18" fill="#282a36"/>
<rect x="958.4" y="422" width="9.6" height="18" fill="#282a36"/>
<text x="958.4" y="436" textLength="9.6" lengthAdjust="spacingAndGlyphs" xml:space="preserve" style="fill:#44475a">│</text>
<rect x="8" y="440" width="9.6" height="18" fill="#282a36"/>
<text x="8" y="454" textLength="9.6" lengthAdjust="spacingAndGlyphs" xml:space="preserve" style="fill:#44475a">│</text>
<rect x="17.6" y="440" width="940.8" height="18" fill="#282a36"/>
<rect x="958.4" y="440" width="9.6" height="18" fill="#282a36"/>
<text x="958.4" y="454" textLength="9.6" lengthAdjust="spacingAndGlyphs" xml:space="preserve" style="fill:#44475a">│</text>
<rect x="8" y="458" width="9.6" height="18" fill="#282a36"/>
<text x="8" y="472" textLength="9.6" lengthAdjust="spacingAndGlyphs" xml:space="preserve" style="fill:#44475a">│</text>
<rect x="17.6" y="458" width="940.8" height="18" fill="#282a36"/>
<rect x="958.4" y="458" width="9.6" height="18" fill="#282a36"/>
<text x="958.4" y="472" textLength="9.6" lengthAdjust="spacingAndGlyphs" xml:space="preserve" style="fill:#44475a">│</text>
<rect x="8" y="476" width="9.6" height="18" fill="#282a36"/>
<text x="8" y="490" textLength="9.6" lengthAdjust="spacingAndGlyphs" xml:space="preserve" style="fill:#44475a">│</text>
<rect x="17.6" y="476" width="940.8" height="18" fill="#282a36"/>
<rect x="958.4" y="476" width="9.6" height="18" fill="#282a36"/>
<text x="958.4" y="490" textLength="9.6" lengthAdjust="spacingAndGlyphs" xml:space="preserve" style="fill:#44475a">│</text>
<rect x="8" y="494" width="960" height="18" fill="#282a36"/>
<text x="8" y="508" textLength="960" lengthAdjust="spacingAndGlyphs" xml:space="preserve" style="fill:#44475a">└──────────────────────────────────────────────────────────────────────────────────────────────────┘</text>
<rect x="8" y="512" width="9.6" height="18" fill="#282a36"/>
<text x="8" y="526" textLength="9.6" lengthAdjust="spacingAndGlyphs" xml:space="preserve" style="fill:#44475a">◀</text>
<rect x="17.6" y="512" width="48" height="18" fill="#282a36"/>
<text x="17.6" y="526" textLength="48" lengthAdjust="spacingAndGlyphs" xml:space="preserve" style="fill:#bd93f9">1    </text>
<rect x="65.6" y="512" width="892.8" height="18" fill="#282a36"/>
<text x="65.6" y="526" textLength="892.8" lengthAdjust="spacingAndGlyphs" xml:space="preserve" style="fill:#f8f8f2">2    3    4    5    6    7    8    9    10   11   12   13   14   15   16   17   18   19      </text>
<rect x="958.4" y="512" width="9.6" height="18" fill="#282a36"/>
<text x="958.4" y="526" textLength="9.6" lengthAdjust="spacingAndGlyphs" xml:space="preserve" style="fill:#44475a">▶</text>
<rect x="8" y="530" width="105.6" height="18" fill="#282a36"/>
<text x="8" y="544" textLength="105.6" lengthAdjust="spacingAndGlyphs" xml:space="preserve" style="fill:#9ea8c7"> group 0/6 </text>
<rect x="113.6" y="530" width="134.4" height="18" fill="#282a36"/>
<rect x="248" y="530" width="9.6" height="18" fill="#282a36"/>
<text x="248" y="544" textLength="9.6" lengthAdjust="spacingAndGlyphs" xml:space="preserve" style="fill:#44475a">│</text>
<rect x="257.6" y="530" width="115.2" height="18" fill="#282a36"/>
<text x="257.6" y="544" textLength="115.2" lengthAdjust="spacingAndGlyphs" xml:space="preserve" style="fill:#9ea8c7"> page 1/137 </text>
<rect x="372.8" y="530" width="115.2" height="18" fill="#282a36"/>
<rect x="488" y="530" width="9.6" height="18" fill="#282a36"/>
<text x="488" y="544" textLength="9.6" lengthAdjust="spacingAndGlyphs" xml:space="preserve" style="fill:#44475a">│</text>
<rect x="497.6" y="530" width="134.4" height="18" fill="#282a36"/>
<text x="497.6" y="544" textLength="134.4" lengthAdjust="spacingAndGlyphs" xml:space="preserve" style="fill:#9ea8c7"> even · off 0 </text>
<rect x="632" y="530" width="96" height="18" fill="#282a36"/>
<rect x="728" y="530" width="9.6" height="18" fill="#282a36"/>
<text x="728" y="544" textLength="9.6" lengthAdjust="spacingAndGlyphs" xml:space="preserve" style="fill:#44475a">│</text>
<rect x="737.6" y="530" width="230.4" height="18" fill="#282a36"/>
<text x="737.6" y="544" textLength="230.4" lengthAdjust="spacingAndGlyphs" xml:space="preserve" style="fill:#9ea8c7"> compact · Ctrl+G group…</text>
</svg>
